PathFileType	4	(X/Y/Z)	C:\Users\WrightLab\Desktop\Jo\P1.2boxCal1-Unnamed.trc
DataRate	CameraRate	NumFrames	NumMarkers	Units	OrigDataRate	OrigDataStartFrame	OrigNumFrames
100.00	100.00	       37	0	mm	100.00	621	       827
Frame#	Time	
		

621	6.200	-670.54089	349.99265	1000.53937	89.58935	323.07098	-464.65460	-190.96249	360.36322	1306.81494	-213.18918	355.06033	982.99622	-655.67041	354.21170	1314.29553	-413.37686	311.86606	-187.01456				50.85539	332.48184	-141.60828	-383.16028	306.41241	-523.53900	
622	6.210	-670.58929	349.83667	1000.37476	89.62981	323.09845	-464.59442	-190.70323	360.54758	1306.67444	-213.22484	355.07217	982.98077	-655.39038	354.38242	1314.11060	-413.55750	312.07590	-187.04967				51.04712	332.10071	-141.35184	-383.16913	306.43292	-523.52740	
623	6.220	-670.78534	349.80804	1000.63812	89.47094	323.10745	-464.55200	-191.07082	360.50677	1306.74951	-213.20723	355.07764	982.99255	-655.77386	354.24683	1314.65271	-413.55118	312.08041	-187.04716				51.04619	332.10385	-141.35141	-383.16519	306.42410	-523.53235	
624	6.230	-670.61060	349.71457	1000.80920	89.55807	323.12308	-464.52615	-190.89189	360.30591	1306.69104	-213.59229	355.02362	983.10468	-655.65948	354.23376	1314.30286	-413.37006	311.85986	-187.01517				51.05438	332.08762	-141.33258	-383.49216	306.35593	-523.90509	
625	6.240	-670.61908	349.72629	1000.81036	89.56706	323.22403	-464.28632	-190.96187	360.37012	1306.80334	-213.45036	354.91669	983.13330	-655.65955	354.23251	1314.29541	-413.56152	312.07111	-187.04846				51.04800	332.08823	-141.35091	-383.16318	306.42017	-523.53448	
626	6.250	-670.83118	349.54803	1000.86469	89.61215	323.13898	-464.49530	-190.97758	360.35922	1306.80835	-213.57906	355.06387	983.10815	-655.51593	354.16901	1314.00732	-413.55099	312.08163	-187.04549				51.25420	332.07361	-141.32944	-383.17145	306.42023	-523.53632	
627	6.260	-670.61365	349.72784	1000.81287	89.60680	323.09213	-464.60645	-190.95949	360.37802	1306.80212	-213.44011	354.91293	983.13306	-655.49731	354.52917	1314.07520	-413.37592	311.86600	-187.01276				51.05176	332.10202	-141.34857	-383.48999	306.36670	-523.89746	
628	6.270	-670.57129	349.87881	1000.97986	89.72134	323.17059	-464.43423	-190.97183	360.34937	1306.80176	-213.21800	355.06464	982.99249	-655.51355	354.43417	1314.36182	-413.39795	312.00674	-187.35437				51.02839	332.09689	-141.34758	-383.14670	306.41092	-523.53693	
629	6.280	-670.58533	349.87747	1000.97278	89.58694	323.19025	-464.36957	-190.68965	360.57968	1306.67761	-213.20515	355.08353	982.98615	-655.50116	354.43829	1314.36218	-413.40942	312.00095	-186.99330				51.25493	332.06354	-141.32100	-383.16711	306.40790	-523.54352	
630	6.290	-670.62494	349.74542	1000.81750	89.56555	323.07230	-464.64835	-190.87720	360.33145	1306.71509	-213.45650	354.91046	983.12750	-655.51245	354.26016	1313.71753	-413.49469	311.91562	-187.06618				51.04660	332.10251	-141.35443	-383.60394	306.71710	-523.88831	
631	6.300	-670.62823	349.70807	1000.80377	89.49110	323.02731	-464.74594	-190.89661	360.31006	1306.68921	-213.57344	355.06403	983.10492	-655.67865	354.32001	1314.01282	-413.36935	311.86472	-187.01295				51.23363	332.20547	-141.49138	-383.17081	306.40460	-523.54657	
632	6.310	-670.84558	349.52365	1000.85767	89.59015	323.09482	-464.59784	-190.94930	360.38400	1306.81030	-213.34381	355.21829	982.97131	-655.75793	354.36014	1314.26123	-413.49158	311.91806	-187.06081				50.92310	332.32224	-141.45610	-383.74197	306.59467	-524.07837	
633	6.320	-670.60516	349.71167	1000.80762	89.54688	323.15219	-464.45514	-190.90166	360.34042	1306.70422	-213.33798	355.21228	982.96948	-655.66614	354.31674	1314.01318	-413.48706	311.91507	-187.05524				51.25513	332.05975	-141.33145	-383.17236	306.40964	-523.54352	
634	6.330	-670.65991	349.70148	1000.80157	89.51086	323.11905	-464.52951	-190.91397	360.31390	1306.68359	-213.31508	355.22498	982.95398	-655.50092	354.42529	1314.46814	-413.55099	312.07443	-187.05028				51.21780	332.20236	-141.45612	-383.49756	306.36349	-523.90131	
635	6.340	-670.84119	349.52820	1000.85779	89.58751	323.15167	-464.46176	-190.90794	360.32541	1306.68762	-213.32050	355.21597	982.96686	-655.74286	354.36090	1314.26111	-413.49759	311.90387	-187.06824				51.12976	332.29227	-141.43568	-383.17093	306.42337	-523.53412	
636	6.350	-670.79993	349.66846	1000.43274	89.49272	323.04614	-464.70123	-190.65175	360.50189	1306.54932	-213.31372	355.20395	982.95508	-655.74780	354.36115	1314.26306	-413.49103	311.91412	-187.06483				50.86917	332.47351	-141.60258	-383.15854	306.41135	-523.53931	
637	6.360	-670.79810	349.64676	1000.42480	89.59286	323.19641	-464.35568	-190.88603	360.32614	1306.68652	-213.31587	355.20850	982.95758	-655.73511	354.35861	1314.26099	-413.40988	312.00381	-186.99495				51.06172	332.44067	-141.57735	-383.18027	306.43729	-523.52698	
638	6.370	-670.56354	349.98380	1000.53613	89.62754	323.13919	-464.49680	-190.70538	360.54007	1306.66223	-213.20343	355.07422	982.98602	-655.58807	354.47345	1314.71899	-413.37253	311.86285	-187.01448				50.84723	332.48230	-141.60860	-383.46918	306.36526	-523.89374	
639	6.380	-670.60510	349.83551	1000.37292	89.75178	323.16904	-464.44193	-190.95726	360.36481	1306.83386	-213.20428	355.07404	983.00940	-655.65369	354.22668	1314.29956	-413.55478	312.08249	-187.04340				51.04076	332.10483	-141.35126	-383.59854	306.70071	-523.89795	
640	6.390	-670.55981	349.87354	1000.97418	89.58113	323.03702	-464.73468	-190.69205	360.54593	1306.65894	-213.21603	355.07330	982.98761	-655.60339	354.22687	1314.37341	-413.49380	311.91214	-187.06416				51.04542	332.10916	-141.34985	-383.17395	306.42450	-523.53406	
641	6.400	-670.79871	349.66718	1000.42981	89.65289	323.06427	-464.67902	-191.04770	360.51144	1306.74744	-213.20158	355.07877	982.99567	-655.67224	354.23526	1314.30103	-413.27930	311.96320	-187.30185				51.04082	332.10147	-141.32390	-383.49072	306.36166	-523.90094	
642	6.410	-670.62982	349.72443	1000.81006	89.63746	323.10468	-464.58051	-190.97574	360.36835	1306.81531	-213.32735	355.20261	982.95087	-655.52777	354.26303	1313.71936	-413.49890	311.91013	-187.06386				51.05775	332.10056	-141.33463	-383.16437	306.41232	-523.53998	
643	6.420	-670.83398	349.53442	1000.85956	89.55906	323.08420	-464.61908	-190.97903	360.38193	1306.81213	-213.18440	355.08191	982.97778	-655.66943	354.21533	1314.29211	-413.49274	311.90887	-187.06476				51.04453	332.10886	-141.36661	-383.16608	306.42224	-523.53375	
644	6.430	-670.81555	349.53864	1000.86591	89.59927	323.14236	-464.48550	-190.61990	360.49432	1306.56152	-213.47780	354.92642	983.13123	-655.68011	354.30978	1314.00916	-413.50537	311.90790	-187.06496				51.23800	332.07532	-141.33313	-383.17560	306.41452	-523.54102	
645	6.440	-670.84229	349.51581	1000.85394	89.67142	323.14340	-464.49258	-190.62709	360.49799	1306.55286	-213.20599	355.06613	982.99280	-655.38184	354.36258	1314.10352	-413.38040	311.86505	-187.01424				51.04123	332.10059	-141.33464	-383.16693	306.40936	-523.54248	
646	6.450	-670.84009	349.53973	1000.86139	89.66283	323.08566	-464.62930	-190.88960	360.33972	1306.71155	-213.30034	355.20364	982.96857	-655.60767	354.30270	1313.96667	-413.38055	311.86221	-187.01474				51.26797	332.06833	-141.31737	-383.17560	306.40628	-523.54651	
647	6.460	-670.87158	349.52487	1000.85437	89.72899	323.13184	-464.52774	-190.86874	360.31085	1306.69666	-213.57738	355.04602	983.10040	-655.40387	354.45071	1313.81982	-413.47913	311.91730	-187.06517				51.08221	332.44705	-141.57231	-383.16226	306.41403	-523.53839	
648	6.470	-670.84021	349.51770	1000.85419	89.67226	323.15637	-464.46173	-190.90712	360.30850	1306.69531	-213.33977	355.20245	982.95209	-655.67639	354.31500	1314.01331	-413.40579	312.00797	-186.98877				51.11657	332.28265	-141.43033	-383.49161	306.36465	-523.89917	
649	6.480	-670.80737	349.66562	1000.43054	89.64033	323.08560	-464.62646	-190.91089	360.33911	1306.71082	-213.23526	355.06766	982.99280	-655.65826	354.22678	1314.29895	-413.49011	311.91046	-187.06779				51.06474	332.45728	-141.59116	-383.15527	306.41800	-523.53418	
650	6.490	-670.81592	349.65335	1000.42358	89.53537	323.17551	-464.39798	-190.72710	360.53485	1306.65662	-213.21222	355.06058	982.98627	-655.38452	354.37177	1314.10645	-413.54092	312.06802	-187.05360				51.05744	332.42572	-141.58655	-383.15164	306.41495	-523.53540	
651	6.500	-670.81262	349.67358	1001.06519	89.42117	323.12604	-464.50104	-190.97195	360.37790	1306.81506	-213.21510	355.08121	982.98773	-655.66339	354.21695	1314.29382	-413.50095	311.90866	-187.06357				51.24212	332.05844	-141.33667	-383.61548	306.71078	-523.89508	
652	6.510	-670.83148	349.52969	1000.85767	89.65277	323.22202	-464.30240	-190.89597	360.33469	1306.70227	-213.31339	355.22083	982.96686	-655.77191	354.34634	1314.25574	-413.40280	312.00183	-186.99719				51.06210	332.43881	-141.58446	-383.61597	306.70935	-523.89612	
653	6.520	-670.56000	349.99368	1000.53937	89.53693	323.12433	-464.52039	-190.97961	360.39661	1306.81921	-213.23715	355.06958	982.98315	-655.60986	354.20682	1314.36243	-413.41168	311.99133	-186.99796				51.06667	332.44229	-141.56500	-383.15662	306.41663	-523.53540	
654	6.530	-670.60925	349.84485	1000.37616	89.68135	323.10025	-464.59686	-190.68176	360.53650	1306.66895	-213.21637	355.07681	982.99042	-655.52728	354.44113	1314.35925	-413.55890	312.08371	-187.04651				51.05222	332.08743	-141.33218	-383.62888	306.73352	-523.88300	
655	6.540	-670.82532	349.53906	1000.85956	89.64622	323.09482	-464.60519	-190.88951	360.31909	1306.69067	-213.21996	355.06467	982.99536	-655.51276	354.52875	1314.07715	-413.54691	312.07581	-187.04688				51.05782	332.09204	-141.33116	-383.47421	306.36691	-523.89380	
656	6.550	-670.57465	349.87000	1000.97095	89.54300	323.11890	-464.53418	-190.64005	360.46509	1306.54785	-213.21094	355.07059	982.98749	-655.50800	354.53101	1314.07434	-413.36908	311.86465	-187.01576				51.05407	332.11636	-141.35185	-383.59769	306.71890	-523.88574	
657	6.560	-670.62415	349.73309	1000.81525	89.66096	323.12537	-464.53421	-190.88077	360.34506	1306.69849	-213.34015	355.19766	982.96515	-655.47900	354.51999	1314.07458	-413.49316	311.91409	-187.06088				51.05030	332.10416	-141.34866	-383.17743	306.42603	-523.53381	
